<svg width="16" height="20" viewBox="0 0 16 20" fill="none" xmlns="http://www.w3.org/2000/svg">
<path d="M1 16C1 17.38 4.13 18.5 8 18.5C11.86 18.5 15 17.38 15 16V4C15 2.61 11.86 1.5 8 1.5C4.13 1.5 1 2.61 1 4V16Z" stroke="black" stroke-width="1.5" stroke-linecap="round" stroke-linejoin="round"/>
<path d="M15 4C15 5.38 11.86 6.5 8 6.5C4.13 6.5 1 5.38 1 4" stroke="black" stroke-width="1.5" stroke-linecap="round" stroke-linejoin="round"/>
<path d="M15 12C15 13.38 11.86 14.5 8 14.5C4.13 14.5 1 13.38 1 12" stroke="black" stroke-width="1.5" stroke-linecap="round" stroke-linejoin="round"/>
<path d="M15 8C15 9.38 11.86 10.5 8 10.5C4.13 10.5 1 9.38 1 8" stroke="black" stroke-width="1.5" stroke-linecap="round" stroke-linejoin="round"/>
</svg>
