<svg width="20" height="20" viewBox="0 0 20 20" fill="none" xmlns="http://www.w3.org/2000/svg">
<path d="M19.9987 10.2216C20.0108 9.53391 19.9382 8.84618 19.785 8.17822H10.2031V11.8896H15.8288C15.6151 13.2057 14.8609 14.3756 13.7439 15.1345L13.7237 15.257L16.7523 17.5573L16.962 17.5771C18.8857 15.8341 19.9987 13.269 19.9987 10.2216Z" fill="#4285F4"/>
<path d="M10.203 19.9999C12.9574 19.9999 15.2723 19.1106 16.962 17.5771L13.7438 15.1305C12.6993 15.8183 11.4613 16.1661 10.2071 16.1305C7.56156 16.1147 5.22254 14.4389 4.39985 11.9725L4.27887 11.9844L1.12926 14.3717L1.08893 14.4823C2.81496 17.8696 6.34366 20.0039 10.203 19.9999" fill="#34A853"/>
<path d="M4.39581 11.9764C4.174 11.3401 4.05705 10.6721 4.05705 9.99626C4.06108 9.32434 4.174 8.65638 4.38774 8.01609L4.38371 7.88566L1.19377 5.45886L1.08892 5.50629C-0.36289 8.33228 -0.36289 11.6602 1.08892 14.4862L4.39581 11.9764Z" fill="#FBBC05"/>
<path d="M10.203 3.86608C11.667 3.84237 13.0784 4.37594 14.1471 5.35615L17.0265 2.6013C15.1795 0.901755 12.7316 -0.0270663 10.199 0.000600778C6.33963 0.000600778 2.81094 2.13096 1.08087 5.51424L4.3797 8.02404C5.21045 5.55772 7.5535 3.88189 10.203 3.86608" fill="#EB4335"/>
</svg>
