<svg width="19" height="24" viewBox="0 0 19 24" fill="none" xmlns="http://www.w3.org/2000/svg">
<path d="M18.17 22.6399C18.1697 23.0005 18.0263 23.3463 17.7713 23.6013C17.5163 23.8563 17.1705 23.9997 16.8099 24H2.29671C1.93606 24 1.59014 23.8569 1.33492 23.6021C1.0797 23.3473 0.93603 23.0016 0.935456 22.6409V1.39848C0.935313 1.21968 0.970426 1.04261 1.03878 0.877386C1.10714 0.712168 1.20741 0.562047 1.33384 0.435615C1.46027 0.309183 1.61039 0.208919 1.77561 0.14056C1.94083 0.0722012 2.11791 0.0370893 2.29671 0.0372319H11.6109L18.17 6.72644V22.6399Z" fill="#23A566"/>
<path d="M12.3333 6.55151L18.1707 12.1309V6.68698H12.9999C12.7741 6.68953 12.5515 6.63352 12.3539 6.52441L12.3333 6.55151Z" fill="#1C8F5A"/>
<path d="M18.1696 6.71522H12.9847C12.6241 6.71493 12.2783 6.57153 12.0232 6.31652C11.7682 6.0615 11.6248 5.7157 11.6245 5.35505V0L18.1696 6.71522Z" fill="#8ED1B1"/>
<path fill-rule="evenodd" clip-rule="evenodd" d="M14.0201 19.5819H5.05167V11.8057H14.0201V19.5819ZM10.0935 12.9274V14.2886H12.9179V12.9296L10.0935 12.9274ZM10.0935 15.1459V16.4465H12.9179V15.1394L10.0935 15.1459ZM10.0935 17.2756V18.4797H12.9179V17.2691L10.0935 17.2756ZM8.98477 18.4732V17.2691H6.16148V18.4732H8.98477ZM8.98477 16.4324V15.1394H6.16148V16.4389L8.98477 16.4324ZM8.98477 14.3027V12.9274H6.16148V14.2886L8.98477 14.3027Z" fill="white"/>
</svg>
